<?xml version="1.0" encoding="UTF-8" standalone="no"?>
<!-- Created with Inkscape (http://www.inkscape.org/) -->

<svg
   id="svg7384"
   sodipodi:docname="fn-disabled-symbolic.svg"
   version="1.1"
   inkscape:version="1.4.2 (ebf0e940d0, 2025-05-08)"
   height="16"
   width="15.999999"
   xmlns:inkscape="http://www.inkscape.org/namespaces/inkscape"
   xmlns:sodipodi="http://sodipodi.sourceforge.net/DTD/sodipodi-0.dtd"
   xmlns="http://www.w3.org/2000/svg"
   xmlns:svg="http://www.w3.org/2000/svg"
   xmlns:rdf="http://www.w3.org/1999/02/22-rdf-syntax-ns#"
   xmlns:cc="http://creativecommons.org/ns#"
   xmlns:dc="http://purl.org/dc/elements/1.1/">
  <metadata
     id="metadata90">
    <rdf:RDF>
      <cc:Work
         rdf:about="">
        <dc:format>image/svg+xml</dc:format>
        <dc:type
           rdf:resource="http://purl.org/dc/dcmitype/StillImage" />
        <dc:title>Gnome Symbolic Icon Theme</dc:title>
      </cc:Work>
    </rdf:RDF>
  </metadata>
  <sodipodi:namedview
     inkscape:cy="6.2324445"
     pagecolor="#666666"
     borderopacity="1"
     showborder="false"
     inkscape:bbox-paths="false"
     guidetolerance="10"
     inkscape:window-width="1440"
     showguides="true"
     inkscape:snap-bbox="true"
     inkscape:pageshadow="2"
     inkscape:guide-bbox="true"
     inkscape:snap-nodes="true"
     bordercolor="#666666"
     objecttolerance="10"
     id="namedview88"
     showgrid="false"
     inkscape:window-maximized="1"
     inkscape:window-x="0"
     inkscape:snap-global="true"
     inkscape:window-y="0"
     gridtolerance="10"
     inkscape:window-height="891"
     inkscape:snap-to-guides="true"
     inkscape:current-layer="layer11"
     inkscape:zoom="54.392783"
     inkscape:cx="7.5101875"
     inkscape:snap-grids="true"
     inkscape:pageopacity="1"
     inkscape:bbox-nodes="false"
     inkscape:showpageshadow="0"
     inkscape:pagecheckerboard="0"
     inkscape:deskcolor="#d1d1d1">
    <inkscape:grid
       spacingx="1px"
       spacingy="1px"
       id="grid4866"
       empspacing="2"
       enabled="true"
       type="xygrid"
       snapvisiblegridlinesonly="true"
       visible="true"
       originx="0"
       originy="0"
       units="px" />
  </sodipodi:namedview>
  <title
     id="title9167">Gnome Symbolic Icon Theme</title>
  <defs
     id="defs7386" />
  <g
     inkscape:label="status"
     transform="translate(-222,-381)"
     inkscape:groupmode="layer"
     id="layer9"
     style="display:inline" />
  <g
     inkscape:label="devices"
     transform="translate(-222,-381)"
     inkscape:groupmode="layer"
     id="layer10" />
  <g
     inkscape:label="apps"
     transform="translate(-222,-381)"
     inkscape:groupmode="layer"
     id="layer11">
    <g
       transform="matrix(1.1402701,0,0,1.1389577,81.766824,-74.564061)"
       id="g4934"
       style="opacity:0.35">
      <path
         style="font-size:medium;font-style:normal;font-variant:normal;font-weight:normal;font-stretch:normal;text-indent:0;text-align:start;text-decoration:none;line-height:normal;letter-spacing:normal;word-spacing:normal;text-transform:none;direction:ltr;block-progression:tb;writing-mode:lr-tb;text-anchor:start;color:#bebebe;fill:#bebebe;fill-opacity:1;fill-rule:nonzero;stroke:none;stroke-width:2;marker:none;visibility:visible;display:inline;overflow:visible;enable-background:accumulate;font-family:Bitstream Vera Sans;-inkscape-font-specification:Bitstream Vera Sans"
         d="M 3.09375,-0.9375 C 1.3478382,-0.9375 0,0.54517095 0,2.28125 l 0,9.5 c 0,1.736079 1.3478382,3.25 3.09375,3.25 l 9.78125,0 c 1.745912,0 3.125,-1.513921 3.125,-3.25 l 0,-9.5 C 16,0.54517095 14.620912,-0.9375 12.875,-0.9375 z M 3.9999966,1.732278e-6 c 4.0167998,0.291550387722 6.0289474,0.152369757722 8.0000004,0 0.859003,-0.066401232278 2,1.064164067722 2,1.999999967722 l 0,8.0000003 c 0,0.757874 -0.846226,1.520408 -1.593747,1.624998 -3.2306111,0.451995 -5.4245849,0.501249 -8.75,0 C 2.909887,11.512499 1.9999966,10.757876 1.9999966,10.000002 l 0,-8.0000003 c 0,-0.9358359 1.140689,-2.06236929 2,-1.999999967722 z"
         transform="matrix(0.8769852,0,0,0.87799573,122.98242,400.83386)"
         id="rect11749-5-9-2-7"
         inkscape:connector-curvature="0"
         sodipodi:nodetypes="ssssssssssssssssss" />
    </g>
    <path
       style="font-weight:bold;font-size:9.33333px;font-family:'Liberation Sans';-inkscape-font-specification:'Liberation Sans Bold';fill:#bdbdbd;fill-opacity:0.34902"
       d="m 226.28171,385.88926 v 1.98698 h 3.2858 v 1.03906 h -3.2858 v 2.35612 h -1.3444 v -6.42122 h 4.73502 v 1.03906 z m 7.57877,5.38216 v -2.76627 q 0,-1.29883 -0.87956,-1.29883 -0.46484,0 -0.75195,0.40104 -0.28255,0.39649 -0.28255,1.02084 v 2.64322 h -1.2806 v -3.82812 q 0,-0.39648 -0.0137,-0.64714 -0.009,-0.2552 -0.0228,-0.45572 h 1.22136 q 0.0137,0.0866 0.0365,0.46484 0.0228,0.3737 0.0228,0.51497 h 0.0182 q 0.25977,-0.5651 0.65169,-0.82031 0.39193,-0.25521 0.93425,-0.25521 0.78385,0 1.20312,0.48308 0.41927,0.48307 0.41927,1.41276 v 3.13085 z"
       id="text1"
       aria-label="Fn" />
  </g>
  <g
     inkscape:label="actions"
     transform="translate(-222,-381)"
     inkscape:groupmode="layer"
     id="layer12" />
  <g
     inkscape:label="places"
     transform="translate(-222,-381)"
     inkscape:groupmode="layer"
     id="layer13" />
  <g
     inkscape:label="mimetypes"
     transform="translate(-222,-381)"
     inkscape:groupmode="layer"
     id="layer14" />
  <g
     inkscape:label="emblems"
     transform="translate(-222,-381)"
     inkscape:groupmode="layer"
     id="layer15" />
</svg>
